<svg width="36" height="36" viewBox="0 0 36 36" fill="none" xmlns="http://www.w3.org/2000/svg">
<path d="M13.7309 20.1943C13.2332 21.3403 12.3052 22.0995 11.4783 22.9347C9.24533 25.1899 6.99386 27.4268 4.74969 29.6709C4.43545 29.9851 4.12539 30.3037 3.80576 30.6124C3.25904 31.1404 2.61629 31.129 2.09379 30.59C-0.740084 27.6667 -0.691018 23.0266 2.20279 20.1596C2.80713 19.5608 3.4075 18.9581 4.00894 18.3564C4.35627 18.0089 4.35949 17.9946 4.00288 17.6323C3.4507 17.0711 2.89621 16.5122 2.33605 15.959C0.912603 14.5534 0.083457 12.8693 0.00843813 10.859C-0.0697358 8.76415 0.640513 6.94709 2.08048 5.42661C2.63761 4.83831 3.26223 4.86489 3.87563 5.47514C5.4057 6.99736 6.92839 8.52699 8.45361 10.0541C9.77253 11.3746 11.0724 12.7149 12.4148 14.011C13.6588 15.212 14.2806 16.6384 14.1978 18.3702C14.1675 19.0022 13.9718 19.5881 13.7309 20.1943Z" fill="#35BC8C"/>
<path d="M35.9855 26.1112C35.8035 27.5452 35.345 28.8333 34.4629 29.9501C34.2745 30.1887 34.0724 30.419 33.8572 30.6336C33.3774 31.1121 32.7395 31.1227 32.2635 30.6478C29.2611 27.6518 26.2439 24.6701 23.2713 21.6447C21.2784 19.6163 21.2982 16.3496 23.3041 14.3132C26.2539 11.3187 29.2407 8.36079 32.2165 5.39207C32.7504 4.85942 33.3927 4.88239 33.9279 5.42363C36.6364 8.1625 36.6903 12.7786 34.0385 15.5705C33.3568 16.2881 32.6581 16.9901 31.9542 17.686C31.7121 17.9253 31.7012 18.092 31.9616 18.3357C32.5176 18.8561 33.0311 19.4216 33.5832 19.9464C35.3413 21.6175 36.1185 23.6676 35.9855 26.1112Z" fill="#35BC8C"/>
<path d="M14.3815 23.2212C16.5721 21.3039 19.7935 21.3983 21.8257 23.4277C24.7361 26.3342 27.6432 29.244 30.5487 32.1555C31.1785 32.7866 31.1647 33.323 30.5228 33.9546C28.4521 35.9923 25.1401 36.5783 22.5015 35.3915C21.5851 34.9793 20.7824 34.4184 20.0781 33.7072C19.5064 33.1297 18.9202 32.5663 18.3588 31.9792C18.1136 31.7228 17.9311 31.7019 17.6726 31.9649C16.9791 32.6704 16.2906 33.3844 15.5537 34.0432C13.7501 35.6556 11.6186 36.1758 9.25652 35.805C7.81651 35.579 6.54515 34.9768 5.47936 33.9713C4.85662 33.3837 4.84393 32.7563 5.4457 32.1538C8.41563 29.1804 11.3894 26.2109 14.3815 23.2212Z" fill="#35BC8C"/>
<path d="M21.4619 1.10933C24.2543 -0.640724 28.1728 -0.273446 30.5053 1.94035C31.167 2.56841 31.1986 3.13661 30.5603 3.77541C27.5902 6.74791 24.6322 9.73298 21.6288 12.6716C19.5632 14.6925 16.2933 14.6107 14.2494 12.5669C11.3223 9.64016 8.39261 6.71603 5.46315 3.79165C4.85085 3.1804 4.8589 2.53279 5.4914 1.94272C8.27788 -0.656843 12.885 -0.648095 15.6594 1.9723C16.3422 2.61722 16.9946 3.29429 17.6631 3.95436C17.9993 4.28623 18.0286 4.27783 18.3596 3.94954C19.1431 3.17232 19.8803 2.34697 20.7304 1.63865C20.954 1.45229 21.2015 1.29459 21.4619 1.10933Z" fill="#35BC8C"/>
</svg>
